<?xml version="1.0" encoding="UTF-8"?>
<svg viewBox="0 0 760 520" xmlns="http://www.w3.org/2000/svg">
  <defs>
    <linearGradient id="purpleGrad" x1="50%" y1="0%" x2="50%" y2="100%">
      <stop offset="0%" stop-color="#a78bfa" />
      <stop offset="35%" stop-color="#8b5cf6" />
      <stop offset="65%" stop-color="#7c3aed" />
      <stop offset="100%" stop-color="#6d28d9" />
    </linearGradient>
  </defs>
  <g transform="matrix(0.1,0,0,-0.1,1.5,520)" fill="url(#purpleGrad)" stroke="none">
    <path d="m 1035,7311 c 66,-53 167,-128 225,-167 108,-73 314,-194 331,-194 5,0 -4,26 -20,58 -47,94 -64,173 -65,302 -1,111 19,245 34,235 4,-3 11,-25 14,-50 17,-112 97,-298 184,-429 57,-86 177,-209 257,-263 110,-73 100,-80 101,70 0,93 5,144 16,172 l 15,40 8,-45 c 13,-83 64,-224 107,-300 l 43,-75 70,-22 c 39,-12 112,-33 164,-47 187,-52 342,-132 527,-271 123,-93 213,-183 335,-337 208,-260 343,-510 446,-828 3,-8 24,40 47,107 59,168 153,351 268,523 224,336 455,555 738,699 128,65 190,88 365,134 l 120,32 37,55 c 46,68 95,189 117,295 l 18,80 14,-40 c 9,-27 14,-84 14,-176 v -137 l 35,18 c 154,79 331,271 428,465 36,73 88,228 97,290 4,24 11,43 15,40 16,-10 35,-137 34,-235 -1,-116 -19,-196 -64,-297 l -29,-63 37,19 c 207,106 488,307 691,494 52,48 96,85 98,83 2,-2 -1,-42 -7,-87 -55,-411 -203,-752 -420,-969 -103,-103 -309,-256 -428,-317 -127,-66 -248,-111 -457,-167 -215,-59 -338,-99 -445,-145 -253,-109 -486,-304 -562,-471 -26,-56 -48,-130 -74,-245 -7,-29 -7,-28 -24,25 l -17,55 -31,-68 c -42,-92 -78,-198 -95,-282 -12,-59 -15,-67 -25,-50 -10,19 -11,18 -22,-10 -6,-16 -34,-106 -61,-200 -27,-93 -50,-174 -52,-178 -1,-4 -82,69 -180,163 l -177,172 -174,-172 -175,-172 -21,74 c -79,269 -104,347 -111,342 -5,-3 -9,-12 -9,-20 0,-35 -18,-1 -24,46 -8,59 -67,233 -103,304 l -26,51 -13,-48 c -16,-64 -21,-66 -29,-15 -11,67 -54,197 -87,263 -39,76 -192,231 -302,305 -159,106 -365,191 -631,260 -279,72 -501,163 -650,265 -104,71 -264,205 -324,271 -192,209 -332,541 -380,897 -19,140 -22,139 67,57 42,-40 131,-115 197,-169 z" transform="translate(0, 2600)"/>
    <path d="m 6404.7162,6232.417 c -64,-177 -109,-329 -149,-509 -59,-269 -79,-399 -74,-505 5,-109 25,-159 103,-255 25,-30 42,-55 37,-55 -4,0 -30,14 -56,30 -46,30 -47,30 -41,8 13,-41 58,-112 103,-160 50,-54 47,-59 -15,-23 -29,16 -43,20 -43,11 0,-27 61,-133 106,-184 40,-46 43,-51 19,-42 -14,5 -29,10 -31,10 -3,0 14,-27 37,-60 82,-118 215,-226 344,-283 39,-17 37,-17 -170,-12 -359,10 -835,-19 -985,-61 -160,-44 -476,-184 -682,-301 -61,-35 -68,-36 -92,-24 -53,29 -194,149 -303,257 -100,100 -117,123 -156,206 -45,94 -70,174 -82,260 l -7,46 77,-40 78,-41 -7,29 c -6,28 -5,27 34,-15 38,-41 92,-68 202,-101 l 28,-9 -25,37 c -13,20 -23,38 -21,40 2,2 26,-12 53,-31 143,-102 241,-122 608,-121 271,0 336,6 553,55 67,15 92,25 92,36 0,10 -5,13 -17,8 -10,-4 -52,-9 -93,-12 -83,-6 -166,12 -209,45 l -23,19 44,25 c 94,56 192,184 261,343 101,232 105,439 16,710 -30,91 -116,275 -164,353 -19,31 -23,43 -13,47 272,91 508,217 648,343 30,27 56,49 57,48 1,-1 -18,-56 -42,-122 z" transform="translate(0, 2600)"/>
    <path d="m 1252.0612,6229.9722 c 64,-177 109,-329 149,-509 59,-269 79,-399 74,-505 -5,-109 -25,-159 -103,-255 -25,-30 -42,-55 -37,-55 4,0 30,14 56,30 46,30 47,30 41,8 -13,-41 -58,-112 -103,-160 -50,-54 -47,-59 15,-23 29,16 43,20 43,11 0,-27 -61,-133 -106,-184 -40,-46 -43,-51 -19,-42 14,5 29,10 31,10 3,0 -14,-27 -37,-60 -82,-118 -215,-226 -343.99995,-283 -39,-17 -37,-17 169.99995,-12 359,10 835,-19 985,-61 160,-44 476,-184 682,-301 61,-35 68,-36 92,-24 53,29 194,149 303,257 100,100 117,123 156,206 45,94 70,174 82,260 l 7,46 -77,-40 -78,-41 7,29 c 6,28 5,27 -34,-15 -38,-41 -92,-68 -202,-101 l -28,-9 25,37 c 13,20 23,38 21,40 -2,2 -26,-12 -53,-31 -143,-102 -241,-122 -608,-121 -271,0 -336,6 -553,55 -67,15 -92,25 -92,36 0,10 5,13 17,8 10,-4 52,-9 93,-12 83,-6 166,12 209,45 l 23,19 -44,25 c -94,56 -192,184 -261,343 -101,232 -105,439 -16,710 30,91 116,275 164,353 19,31 23,43 13,47 -272,91 -508,217 -648,343 -30,27 -56,49 -57,48 -1,-1 18,-56 42,-122 z" transform="translate(0, 2600)"/>
    <path d="m 2345,5740 c 361,-118 606,-274 691,-442 64,-126 -4,-355 -151,-504 -190,-192 -456,-236 -735,-121 -86,35 -203,100 -275,151 -56,40 -55,44 1,20 48,-20 94,-34 94,-28 0,2 -21,17 -47,34 -50,31 -52,37 -8,20 15,-6 25,-7 23,-3 -2,5 -16,33 -32,63 -49,94 -67,159 -73,265 -9,187 40,327 159,449 l 68,68 47,-6 c 227,-33 486,-118 632,-208 19,-12 32,-17 28,-11 -12,19 -144,92 -229,127 -90,36 -214,73 -340,102 -43,10 -78,22 -78,26 0,12 52,37 78,38 13,0 79,-18 147,-40 z" transform="translate(0, 2600)"/>
    <path d="m 5522,5760 c 37,-23 44,-19 -118,-59 -215,-54 -420,-139 -500,-208 l -29,-25 30,20 c 64,42 183,95 294,132 106,36 341,90 388,90 11,0 48,-29 85,-68 109,-113 159,-239 160,-407 0,-117 -16,-189 -67,-291 -40,-80 -41,-82 -17,-73 42,16 35,3 -13,-25 -25,-15 -45,-29 -45,-31 0,-6 73,16 103,32 55,28 37,5 -30,-40 -190,-126 -350,-187 -513,-194 -131,-6 -211,11 -323,69 -152,79 -263,222 -307,394 -26,101 -25,148 5,212 57,123 180,225 399,332 142,70 388,159 438,160 15,0 42,-9 60,-20 z" transform="translate(0, 2600)"/>
    <path d="m 4188.6951,4294.8091 28,-31 -15,-69 c -18,-87 -73,-235 -143,-383 -81,-174 -216,-420 -228,-417 -15,5 -137,210 -205,345 -73,145 -124,276 -150,385 -35,147 -46,126 167,339 l 188,188 165,-163 c 91,-89 178,-176 193,-194 z" transform="translate(0, 2600)"/>
  </g>
</svg>
